<svg width="351.953" height="90.626" viewBox="0 0 351.953 90.626" xmlns="http://www.w3.org/2000/svg"><g id="svgGroup" stroke-linecap="round" fill-rule="evenodd" font-size="9pt" stroke="#000" stroke-width="0.25mm" fill="#000" style="stroke:#000;stroke-width:0.25mm;fill:#000"><path d="M 0 70.703 L 14.648 70.703 L 14.648 41.406 L 45.313 41.406 L 45.313 70.703 L 60.059 70.703 L 60.059 0 L 45.313 0 L 45.313 29.297 L 14.648 29.297 L 14.648 0 L 0 0 L 0 70.703 Z M 331.25 76.563 L 351.953 17.676 L 336.621 17.676 L 325.391 56.738 L 324.805 56.738 L 313.672 17.676 L 298.535 17.676 L 317.578 72.168 L 316.699 74.414 A 12.876 12.876 0 0 1 315.833 76.266 C 314.395 78.746 312.644 79.208 310.619 79.283 A 22.976 22.976 0 0 1 309.766 79.297 A 73.82 73.82 0 0 1 307.586 79.261 C 306.465 79.227 305.32 79.175 304.257 79.12 A 304.704 304.704 0 0 1 303.906 79.102 L 303.906 90.332 A 40.052 40.052 0 0 0 305.435 90.46 C 306.212 90.512 307.067 90.551 307.975 90.578 A 108.917 108.917 0 0 0 311.23 90.625 A 26.264 26.264 0 0 0 318.053 89.798 C 324.931 87.952 328.909 83.134 331.25 76.563 Z M 164.844 39.453 L 164.844 70.703 L 179.199 70.703 L 179.199 36.914 C 179.291 25.226 172.792 17.875 162.807 17.067 A 23.171 23.171 0 0 0 160.937 16.992 A 19.948 19.948 0 0 0 154.127 18.116 A 15.116 15.116 0 0 0 145.02 26.953 L 144.434 26.953 L 144.434 17.676 L 130.664 17.676 L 130.664 70.703 L 145.117 70.703 L 145.117 40.039 A 14.231 14.231 0 0 1 145.808 35.477 C 147.061 31.768 149.939 29.539 153.784 29.089 A 12.805 12.805 0 0 1 155.273 29.004 A 10.464 10.464 0 0 1 159.808 29.946 C 163.012 31.473 164.844 34.795 164.844 39.453 Z M 247.461 70.703 L 291.895 70.703 L 291.895 59.18 L 266.504 59.18 L 266.504 58.789 L 291.016 27.148 L 291.016 17.676 L 248.34 17.676 L 248.34 29.199 L 273.633 29.199 L 273.633 29.59 L 247.461 62.012 L 247.461 70.703 Z M 238.379 55.566 L 224.609 55.566 A 8.606 8.606 0 0 1 220.478 59.714 C 219.343 60.273 218.032 60.658 216.569 60.832 A 15.437 15.437 0 0 1 214.746 60.938 C 207.324 60.938 202.539 55.957 202.539 47.949 L 238.77 47.949 L 238.77 43.848 A 35.094 35.094 0 0 0 237.289 33.339 C 233.851 22.363 224.784 16.992 213.867 16.992 C 201.226 16.992 192.209 24.307 189.294 35.879 A 35.007 35.007 0 0 0 188.281 44.434 A 33.308 33.308 0 0 0 190.432 56.703 C 194.185 66.202 202.667 71.777 214.453 71.777 A 32.638 32.638 0 0 0 224.174 70.396 C 231.842 68.004 236.889 62.662 238.379 55.566 Z M 95.508 71.777 A 27.934 27.934 0 0 0 108.089 69.008 C 114.579 65.766 119.011 59.841 120.754 52.103 A 35.327 35.327 0 0 0 121.582 44.336 A 32.105 32.105 0 0 0 119.063 31.388 C 115.622 23.549 108.814 18.407 99.601 17.243 A 32.669 32.669 0 0 0 95.508 16.992 A 27.999 27.999 0 0 0 83.018 19.706 C 74.483 23.919 69.531 32.768 69.531 44.336 A 32.431 32.431 0 0 0 72.046 57.342 C 75.49 65.239 82.321 70.424 91.607 71.548 A 32.465 32.465 0 0 0 95.508 71.777 Z M 86.131 54.252 A 10.132 10.132 0 0 0 95.605 60.547 A 9.463 9.463 0 0 0 103.016 57.234 C 105.55 54.327 106.836 49.727 106.836 44.336 C 106.836 40.436 106.177 36.958 104.873 34.227 A 9.907 9.907 0 0 0 95.605 28.027 A 9.677 9.677 0 0 0 88.057 31.373 C 86.719 32.895 85.722 34.877 85.075 37.195 A 26.693 26.693 0 0 0 84.18 44.336 C 84.18 48.141 84.837 51.552 86.131 54.252 Z M 225.098 38.867 L 202.539 38.867 A 11.296 11.296 0 0 1 212.418 27.949 A 12.889 12.889 0 0 1 214.16 27.832 A 11.404 11.404 0 0 1 220.068 29.381 C 222.699 30.956 224.471 33.633 224.96 36.957 A 13.105 13.105 0 0 1 225.098 38.867 Z" vector-effect="non-scaling-stroke"/></g></svg>